<svg xmlns="http://www.w3.org/2000/svg" width="1200" height="675" viewBox="0 0 1200 675" role="img" aria-label="Dashboard preview placeholder">
  <rect width="1200" height="675" fill="#0b1220" rx="20" />
  <text x="60" y="90" fill="#e2e8f0" font-size="46" font-family="Inter, Arial, sans-serif" font-weight="700">Dashboard Overview</text>
  <rect x="60" y="130" width="1080" height="120" rx="14" fill="#1e293b"/>
  <rect x="90" y="165" width="180" height="50" rx="10" fill="#22c55e"/>
  <rect x="300" y="165" width="180" height="50" rx="10" fill="#3b82f6"/>
  <rect x="510" y="165" width="180" height="50" rx="10" fill="#f59e0b"/>
  <rect x="720" y="165" width="180" height="50" rx="10" fill="#ef4444"/>
  <rect x="60" y="280" width="520" height="330" rx="14" fill="#1e293b"/>
  <rect x="620" y="280" width="520" height="330" rx="14" fill="#1e293b"/>
  <rect x="95" y="320" width="220" height="20" rx="6" fill="#334155"/>
  <rect x="95" y="360" width="440" height="16" rx="6" fill="#334155"/>
  <rect x="95" y="390" width="390" height="16" rx="6" fill="#334155"/>
  <rect x="655" y="320" width="220" height="20" rx="6" fill="#334155"/>
  <rect x="655" y="360" width="440" height="16" rx="6" fill="#334155"/>
  <rect x="655" y="390" width="390" height="16" rx="6" fill="#334155"/>
</svg>
